<svg xmlns="http://www.w3.org/2000/svg" xmlns:xlink="http://www.w3.org/1999/xlink" viewBox="0 0 1080 1080" width="1080" height="1080" preserveAspectRatio="xMidYMid meet" style="width: 100%; height: 100%; transform: translate3d(0px, 0px, 0px); content-visibility: visible;"><defs><clipPath id="__lottie_element_266"><rect width="1080" height="1080" x="0" y="0"></rect></clipPath></defs><g clip-path="url(#__lottie_element_266)"><g transform="matrix(-0.5131967663764954,-0.8338783979415894,0.8582710027694702,-0.4986113905906677,-180.14788818359375,1369.8255615234375)" opacity="1" style="display: block;"><g opacity="1" transform="matrix(1,0,0,1,382.3039855957031,849.916015625)"><path fill="rgb(0,0,0)" fill-opacity="1" d=" M-128.96499633789062,-48.62300109863281 C-121.14199829101562,-39.058998107910156 -137.66700744628906,6.671000003814697 -191.1280059814453,-0.42899999022483826 C-240.39599609375,-6.9720001220703125 -266.5690002441406,-32.5989990234375 -286.4209899902344,-70.47699737548828 C-306.27301025390625,-108.35600280761719 -312.7409973144531,-170.5070037841797 -260.0050048828125,-195.0570068359375 C-188.69000244140625,-228.25599670410156 -174.63999938964844,-137.2689971923828 -169.4770050048828,-103.88700103759766 C-164.31399536132812,-70.50499725341797 -146.3730010986328,-77.49800109863281 -128.96499633789062,-48.62300109863281z"></path></g><g opacity="1" transform="matrix(1,0,0,1,0,0)"><path fill="rgb(255,255,255)" fill-opacity="1" d=" M158.98500061035156,650.5900268554688 C146.45700073242188,648.3200073242188 97,645.9810180664062 83.375,707.8499755859375 C81.5,729.8920288085938 80.14600372314453,742.1829833984375 98.375,783.4949951171875 C129.375,839.97802734375 188.25,850.7479858398438 214.25,846.8660278320312 C117.55699920654297,853.4349975585938 74.21399688720703,759.1270141601562 83.71399688720703,716.0449829101562 C93.21399688720703,672.9630126953125 109.49700164794922,651.7080078125 158.98500061035156,650.5900268554688z"></path><path stroke-linecap="butt" stroke-linejoin="miter" fill-opacity="0" stroke-miterlimit="4" stroke="rgb(0,0,0)" stroke-opacity="1" stroke-width="5" d=" M158.98500061035156,650.5900268554688 C146.45700073242188,648.3200073242188 97,645.9810180664062 83.375,707.8499755859375 C81.5,729.8920288085938 80.14600372314453,742.1829833984375 98.375,783.4949951171875 C129.375,839.97802734375 188.25,850.7479858398438 214.25,846.8660278320312 C117.55699920654297,853.4349975585938 74.21399688720703,759.1270141601562 83.71399688720703,716.0449829101562 C93.21399688720703,672.9630126953125 109.49700164794922,651.7080078125 158.98500061035156,650.5900268554688z"></path></g></g><g transform="matrix(1,0,0,0.971579372882843,540,550.7330322265625)" opacity="1" style="display: block;"><g opacity="1" transform="matrix(1,0,0,1,0,0)"><path stroke-linecap="round" stroke-linejoin="round" fill-opacity="0" stroke="rgb(0,0,0)" stroke-opacity="1" stroke-width="70" d=" M-111,158 C-111,158 -251.5,140.5 -254,198 C-255.86599731445312,240.91299438476562 -166,253.5 -166,253.5"></path></g><g opacity="1" transform="matrix(1,0,0,1,0,0)"><path stroke-linecap="round" stroke-linejoin="round" fill-opacity="0" stroke="rgb(58,134,255)" stroke-opacity="1" stroke-width="61" d=" M-111,158 C-111,158 -251.5,140.5 -254,198 C-255.86599731445312,240.91299438476562 -166,253.5 -166,253.5"></path></g></g><g transform="matrix(1,0,0,0.9833062887191772,540,546.3570556640625)" opacity="1" style="display: block;"><g opacity="1" transform="matrix(1,0,0,1,0,0)"><path fill="rgb(0,0,0)" fill-opacity="1" d=" M-217,125.5 C-217,125.5 -254,138.75 -271,157.875 C-248,175.875 -231.5,185.25 -158.75,183.75 C-160,185.25 -217,125.5 -217,125.5z"></path><path stroke-linecap="butt" stroke-linejoin="miter" fill-opacity="0" stroke-miterlimit="4" stroke="rgb(0,0,0)" stroke-opacity="1" stroke-width="0" d=" M-217,125.5 C-217,125.5 -254,138.75 -271,157.875 C-248,175.875 -231.5,185.25 -158.75,183.75 C-160,185.25 -217,125.5 -217,125.5z"></path></g></g><g transform="matrix(0.6875261664390564,-0.7055217027664185,0.7261596322059631,0.6679862141609192,-347.27069091796875,452.3690490722656)" opacity="1" style="display: block;"><g opacity="1" transform="matrix(1,0,0,1,382.3039855957031,849.916015625)"><path fill="rgb(0,0,0)" fill-opacity="1" d=" M-128.96499633789062,-48.62300109863281 C-121.14199829101562,-39.058998107910156 -137.66700744628906,6.671000003814697 -191.1280059814453,-0.42899999022483826 C-240.39599609375,-6.9720001220703125 -266.5690002441406,-32.5989990234375 -286.4209899902344,-70.47699737548828 C-306.27301025390625,-108.35600280761719 -312.7409973144531,-170.5070037841797 -260.0050048828125,-195.0570068359375 C-188.69000244140625,-228.25599670410156 -174.63999938964844,-137.2689971923828 -169.4770050048828,-103.88700103759766 C-164.31399536132812,-70.50499725341797 -146.3730010986328,-77.49800109863281 -128.96499633789062,-48.62300109863281z"></path></g><g opacity="1" transform="matrix(1,0,0,1,0,0)"><path fill="rgb(255,255,255)" fill-opacity="1" d=" M162.61981201171875,654.8749389648438 C148.30014038085938,640.36181640625 97,645.9810180664062 83.375,707.8499755859375 C81.5,729.8920288085938 80.14600372314453,742.1829833984375 98.375,783.4949951171875 C129.375,839.97802734375 188.25,850.7479858398438 214.25,846.8660278320312 C156.8354034423828,843.2278442382812 109.2110824584961,760.6301879882812 118.7110824584961,717.5482177734375 C128.21107482910156,674.4661865234375 157.99832153320312,666.677001953125 162.61981201171875,654.8749389648438z"></path><path stroke-linecap="butt" stroke-linejoin="miter" fill-opacity="0" stroke-miterlimit="4" stroke="rgb(0,0,0)" stroke-opacity="1" stroke-width="5" d=" M162.61981201171875,654.8749389648438 C148.30014038085938,640.36181640625 97,645.9810180664062 83.375,707.8499755859375 C81.5,729.8920288085938 80.14600372314453,742.1829833984375 98.375,783.4949951171875 C129.375,839.97802734375 188.25,850.7479858398438 214.25,846.8660278320312 C156.8354034423828,843.2278442382812 109.2110824584961,760.6301879882812 118.7110824584961,717.5482177734375 C128.21107482910156,674.4661865234375 157.99832153320312,666.677001953125 162.61981201171875,654.8749389648438z"></path></g></g><g transform="matrix(1,0,0,0.971579372882843,639,582.795166015625)" opacity="1" style="display: block;"><g opacity="1" transform="matrix(1,0,0,1,0,0)"><path stroke-linecap="round" stroke-linejoin="round" fill-opacity="0" stroke="rgb(0,0,0)" stroke-opacity="1" stroke-width="70" d=" M-111,158 C-111,158 -210.6392822265625,148.14712524414062 -242.31936645507812,184.4750518798828 C-267.0142517089844,212.07228088378906 -250.83831787109375,243.0489044189453 -250.83831787109375,243.0489044189453"></path></g><g opacity="1" transform="matrix(1,0,0,1,0,0)"><path stroke-linecap="round" stroke-linejoin="round" fill-opacity="0" stroke="rgb(84,150,255)" stroke-opacity="1" stroke-width="61" d=" M-111,158 C-111,158 -210.6392822265625,148.14712524414062 -242.31936645507812,184.4750518798828 C-267.0142517089844,212.07228088378906 -250.83831787109375,243.0489044189453 -250.83831787109375,243.0489044189453"></path></g></g><g transform="matrix(0.9788780808448792,-0.1986343413591385,0.20691242814064026,0.9625369906425476,589.4514770507812,546.0672607421875)" opacity="1" style="display: block;"><g opacity="1" transform="matrix(1,0,0,1,0,0)"><path fill="rgb(0,0,0)" fill-opacity="1" d=" M-217,125.5 C-217,125.5 -254.33059692382812,140.33763122558594 -269.046142578125,162.88775634765625 C-247.13014221191406,185.6277618408203 -208.5768280029297,191.01568603515625 -140.9378204345703,192.77467346191406 C-142.1878204345703,194.27467346191406 -217,125.5 -217,125.5z"></path><path stroke-linecap="butt" stroke-linejoin="miter" fill-opacity="0" stroke-miterlimit="4" stroke="rgb(0,0,0)" stroke-opacity="1" stroke-width="0" d=" M-217,125.5 C-217,125.5 -254.33059692382812,140.33763122558594 -269.046142578125,162.88775634765625 C-247.13014221191406,185.6277618408203 -208.5768280029297,191.01568603515625 -140.9378204345703,192.77467346191406 C-142.1878204345703,194.27467346191406 -217,125.5 -217,125.5z"></path></g></g><g transform="matrix(1,0,0,0.971579372882843,0,32.430419921875)" opacity="1" style="display: block;"><g opacity="1" transform="matrix(1,0,0,1,493.447998046875,530.697021484375)"><path fill="rgb(253,137,255)" fill-opacity="1" d=" M-263.7760009765625,41.492000579833984 C-220.81500244140625,115.10099792480469 -95.8239974975586,261.72100830078125 217.80299377441406,260.31201171875 C250.8179931640625,260.16400146484375 276.98199462890625,232.3509979248047 275.2460021972656,199.3820037841797 C275.2460021972656,199.3820037841797 257.1409912109375,-144.48899841308594 257.1409912109375,-144.48899841308594 C257.1409912109375,-144.48899841308594 -20.599000930786133,-261.7200012207031 -20.599000930786133,-261.7200012207031 C-20.599000930786133,-261.7200012207031 -254.5,-28.367000579833984 -254.5,-28.367000579833984 C-273.0469970703125,-9.86400032043457 -276.98199462890625,18.865999221801758 -263.7760009765625,41.492000579833984z"></path><path stroke-linecap="butt" stroke-linejoin="miter" fill-opacity="0" stroke-miterlimit="10" stroke="rgb(0,0,0)" stroke-opacity="1" stroke-width="5" d=" M-263.7760009765625,41.492000579833984 C-220.81500244140625,115.10099792480469 -95.8239974975586,261.72100830078125 217.80299377441406,260.31201171875 C250.8179931640625,260.16400146484375 276.98199462890625,232.3509979248047 275.2460021972656,199.3820037841797 C275.2460021972656,199.3820037841797 257.1409912109375,-144.48899841308594 257.1409912109375,-144.48899841308594 C257.1409912109375,-144.48899841308594 -20.599000930786133,-261.7200012207031 -20.599000930786133,-261.7200012207031 C-20.599000930786133,-261.7200012207031 -254.5,-28.367000579833984 -254.5,-28.367000579833984 C-273.0469970703125,-9.86400032043457 -276.98199462890625,18.865999221801758 -263.7760009765625,41.492000579833984z"></path></g><g opacity="1" transform="matrix(1,0,0,1,509.885009765625,616.8170166015625)"><path stroke-linecap="round" stroke-linejoin="miter" fill-opacity="0" stroke-miterlimit="10" stroke="rgb(58,134,255)" stroke-opacity="1" stroke-width="15" d=" M-250.77000427246094,-124.73200225830078 C-250.77000427246094,-124.73200225830078 -139.80299377441406,124.73300170898438 250.77099609375,96.0479965209961"></path></g><g opacity="1" transform="matrix(1,0,0,1,518.1259765625,596.77001953125)"><path stroke-linecap="round" stroke-linejoin="miter" fill-opacity="0" stroke-miterlimit="10" stroke="rgb(58,134,255)" stroke-opacity="1" stroke-width="6" d=" M-243.66700744628906,-123.76000213623047 C-243.66700744628906,-123.76000213623047 -146.90699768066406,123.76100158691406 243.66700744628906,95.07599639892578"></path></g><g opacity="1" transform="matrix(1,0,0,1,609.3809814453125,331.7760009765625)"><path fill="rgb(255,255,255)" fill-opacity="1" d=" M140.53700256347656,56.43899917602539 C131.9010009765625,77.94200134277344 61.97999954223633,70.10600280761719 -15.63599967956543,38.935001373291016 C-93.25299835205078,7.764999866485596 -149.17300415039062,-34.93600082397461 -140.53700256347656,-56.43899917602539 C-131.9010009765625,-77.94300079345703 -61.97999954223633,-70.10600280761719 15.63599967956543,-38.93600082397461 C93.25299835205078,-7.764999866485596 149.17300415039062,34.93600082397461 140.53700256347656,56.43899917602539z"></path><path stroke-linecap="butt" stroke-linejoin="miter" fill-opacity="0" stroke-miterlimit="10" stroke="rgb(0,0,0)" stroke-opacity="1" stroke-width="5" d=" M140.53700256347656,56.43899917602539 C131.9010009765625,77.94200134277344 61.97999954223633,70.10600280761719 -15.63599967956543,38.935001373291016 C-93.25299835205078,7.764999866485596 -149.17300415039062,-34.93600082397461 -140.53700256347656,-56.43899917602539 C-131.9010009765625,-77.94300079345703 -61.97999954223633,-70.10600280761719 15.63599967956543,-38.93600082397461 C93.25299835205078,-7.764999866485596 149.17300415039062,34.93600082397461 140.53700256347656,56.43899917602539z"></path></g></g><g transform="matrix(0.9563047289848328,-0.28406229615211487,0.2923716902732849,0.929125964641571,-44.7852783203125,230.16351318359375)" opacity="1" style="display: block;"><g opacity="1" transform="matrix(1,0,0,1,464.3840026855469,454.5610046386719)"><path fill="rgb(0,0,0)" fill-opacity="1" d=" M12.720999717712402,6.660999774932861 C9.331999778747559,13.104000091552734 -3.4549999237060547,13.451000213623047 -7.129000186920166,11.088000297546387 C-10.803000450134277,8.72599983215332 -14.901000022888184,-0.9139999747276306 -11.470000267028809,-7.335000038146973 C-9.256999969482422,-11.475000381469727 -1.1519999504089355,-6.933000087738037 2.5220000743865967,-4.570000171661377 C6.197000026702881,-2.2079999446868896 15.041999816894531,2.247999906539917 12.720999717712402,6.660999774932861z"></path></g></g><g transform="matrix(0.9563047289848328,-0.28406229615211487,0.2923716902732849,0.929125964641571,-44.7852783203125,230.16351318359375)" opacity="1" style="display: block;"><g opacity="1" transform="matrix(1,0,0,1,471.5559997558594,407.9020080566406)"><path fill="rgb(0,0,0)" fill-opacity="1" d=" M6.6529998779296875,4.2769999504089355 C3.6499593257904053,8.95351505279541 -1.72654390335083,10.802927017211914 -5.401544094085693,8.439927101135254 C-9.075544357299805,6.077927112579346 -9.658611297607422,0.4361739456653595 -6.6529998779296875,-4.2779998779296875 C-3.6494531631469727,-8.914947509765625 1.673995852470398,-10.768656730651855 5.347995758056641,-8.405656814575195 C9.021995544433594,-6.043656349182129 9.647862434387207,-0.3849889636039734 6.6529998779296875,4.2769999504089355z"></path></g><g opacity="1" transform="matrix(1,0,0,1,505.61199951171875,428.05499267578125)"><path fill="rgb(0,0,0)" fill-opacity="1" d=" M6.6529998779296875,4.2769999504089355 C3.556999921798706,9.092000007629395 -1.930999994277954,11.081999778747559 -5.605999946594238,8.718999862670898 C-9.279999732971191,6.35699987411499 -9.74899959564209,0.5370000004768372 -6.6529998779296875,-4.2779998779296875 C-3.556999921798706,-9.093000411987305 1.9320000410079956,-11.081999778747559 5.605999946594238,-8.718999862670898 C9.279999732971191,-6.35699987411499 9.74899959564209,-0.5379999876022339 6.6529998779296875,4.2769999504089355z"></path></g></g><g transform="matrix(0.9987039566040039,-0.04944946989417076,0.050895966589450836,0.9703201651573181,-17.146240234375,65.44676971435547)" opacity="1" style="display: block;"><g opacity="1" transform="matrix(1,0,0,1,754.3740234375,247.89999389648438)"><path fill="rgb(255,0,7)" fill-opacity="1" d=" M-99.36399841308594,111.26399993896484 C-99.58599853515625,111.09600067138672 -99.8030014038086,110.91699981689453 -100.01200103759766,110.72699737548828 C-103.89600372314453,107.22000122070312 -104.19999694824219,101.22699737548828 -100.69300079345703,97.34400177001953 C-100.69300079345703,97.34400177001953 86.62899780273438,-110.02999877929688 86.62899780273438,-110.02999877929688 C90.13700103759766,-113.91200256347656 96.16899871826172,-114.19100189208984 100.01100158691406,-110.70999908447266 C103.8949966430664,-107.2020034790039 104.19999694824219,-101.20899963378906 100.69200134277344,-97.32599639892578 C100.69200134277344,-97.32599639892578 -86.62899780273438,110.0479965209961 -86.62899780273438,110.0479965209961 C-89.9469985961914,113.72100067138672 -95.48799896240234,114.19100189208984 -99.36399841308594,111.26399993896484z"></path><path stroke-linecap="butt" stroke-linejoin="miter" fill-opacity="0" stroke-miterlimit="10" stroke="rgb(36,31,32)" stroke-opacity="1" stroke-width="5" d=" M-99.36399841308594,111.26399993896484 C-99.58599853515625,111.09600067138672 -99.8030014038086,110.91699981689453 -100.01200103759766,110.72699737548828 C-103.89600372314453,107.22000122070312 -104.19999694824219,101.22699737548828 -100.69300079345703,97.34400177001953 C-100.69300079345703,97.34400177001953 86.62899780273438,-110.02999877929688 86.62899780273438,-110.02999877929688 C90.13700103759766,-113.91200256347656 96.16899871826172,-114.19100189208984 100.01100158691406,-110.70999908447266 C103.8949966430664,-107.2020034790039 104.19999694824219,-101.20899963378906 100.69200134277344,-97.32599639892578 C100.69200134277344,-97.32599639892578 -86.62899780273438,110.0479965209961 -86.62899780273438,110.0479965209961 C-89.9469985961914,113.72100067138672 -95.48799896240234,114.19100189208984 -99.36399841308594,111.26399993896484z"></path></g><g opacity="1" transform="matrix(1,0,0,1,849.4329833984375,142.66600036621094)"><path fill="rgb(255,129,240)" fill-opacity="1" d=" M7.15500020980835,6.329999923706055 C4.445000171661377,9.392999649047852 -0.9549999833106995,9.041999816894531 -4.906000137329102,5.546000003814697 C-8.857999801635742,2.0490000247955322 -9.86400032043457,-3.2679998874664307 -7.1539998054504395,-6.329999923706055 C-4.445000171661377,-9.392999649047852 0.9539999961853027,-9.041999816894531 4.906000137329102,-5.546000003814697 C8.857000350952148,-2.049999952316284 9.864999771118164,3.2669999599456787 7.15500020980835,6.329999923706055z"></path><path stroke-linecap="butt" stroke-linejoin="miter" fill-opacity="0" stroke-miterlimit="10" stroke="rgb(36,31,32)" stroke-opacity="1" stroke-width="5" d=" M7.15500020980835,6.329999923706055 C4.445000171661377,9.392999649047852 -0.9549999833106995,9.041999816894531 -4.906000137329102,5.546000003814697 C-8.857999801635742,2.0490000247955322 -9.86400032043457,-3.2679998874664307 -7.1539998054504395,-6.329999923706055 C-4.445000171661377,-9.392999649047852 0.9539999961853027,-9.041999816894531 4.906000137329102,-5.546000003814697 C8.857000350952148,-2.049999952316284 9.864999771118164,3.2669999599456787 7.15500020980835,6.329999923706055z"></path></g></g><g transform="matrix(0.9988916516304016,0.045731619000434875,-0.04706935957074165,0.970502495765686,17.71514892578125,2.2168750762939453)" opacity="1" style="display: block;"><g opacity="1" transform="matrix(1,0,0,1,677.5789794921875,214.93600463867188)"><path fill="rgb(255,0,7)" fill-opacity="1" d=" M-6.002999782562256,149.16200256347656 C-6.281000137329102,149.1739959716797 -6.563000202178955,149.17300415039062 -6.843999862670898,149.16000366210938 C-12.071999549865723,148.9199981689453 -16.117000579833984,144.48699951171875 -15.876999855041504,139.25900268554688 C-15.876999855041504,139.25900268554688 -3.055000066757202,-139.8979949951172 -3.055000066757202,-139.8979949951172 C-2.813999891281128,-145.125 1.6649999618530273,-149.1739959716797 6.843999862670898,-148.92799377441406 C12.071999549865723,-148.68899536132812 16.115999221801758,-144.2550048828125 15.87600040435791,-139.0279998779297 C15.87600040435791,-139.0279998779297 3.055000066757202,140.1300048828125 3.055000066757202,140.1300048828125 C2.828000068664551,145.072998046875 -1.149999976158142,148.95899963378906 -6.002999782562256,149.16200256347656z"></path><path stroke-linecap="butt" stroke-linejoin="miter" fill-opacity="0" stroke-miterlimit="10" stroke="rgb(36,31,32)" stroke-opacity="1" stroke-width="5" d=" M-6.002999782562256,149.16200256347656 C-6.281000137329102,149.1739959716797 -6.563000202178955,149.17300415039062 -6.843999862670898,149.16000366210938 C-12.071999549865723,148.9199981689453 -16.117000579833984,144.48699951171875 -15.876999855041504,139.25900268554688 C-15.876999855041504,139.25900268554688 -3.055000066757202,-139.8979949951172 -3.055000066757202,-139.8979949951172 C-2.813999891281128,-145.125 1.6649999618530273,-149.1739959716797 6.843999862670898,-148.92799377441406 C12.071999549865723,-148.68899536132812 16.115999221801758,-144.2550048828125 15.87600040435791,-139.0279998779297 C15.87600040435791,-139.0279998779297 3.055000066757202,140.1300048828125 3.055000066757202,140.1300048828125 C2.828000068664551,145.072998046875 -1.149999976158142,148.95899963378906 -6.002999782562256,149.16200256347656z"></path></g><g opacity="1" transform="matrix(1,0,0,1,684.0809936523438,73.38300323486328)"><path fill="rgb(255,129,240)" fill-opacity="1" d=" M9.54699993133545,0.3400000035762787 C9.401000022888184,4.427000045776367 5.008999824523926,7.5879998207092285 -0.2639999985694885,7.400000095367432 C-5.5370001792907715,7.2129998207092285 -9.692999839782715,3.746000051498413 -9.54800033569336,-0.3400000035762787 C-9.402000427246094,-4.427000045776367 -5.008999824523926,-7.5879998207092285 0.2630000114440918,-7.400000095367432 C5.535999774932861,-7.211999893188477 9.692999839782715,-3.746999979019165 9.54699993133545,0.3400000035762787z"></path><path stroke-linecap="butt" stroke-linejoin="miter" fill-opacity="0" stroke-miterlimit="10" stroke="rgb(36,31,32)" stroke-opacity="1" stroke-width="5" d=" M9.54699993133545,0.3400000035762787 C9.401000022888184,4.427000045776367 5.008999824523926,7.5879998207092285 -0.2639999985694885,7.400000095367432 C-5.5370001792907715,7.2129998207092285 -9.692999839782715,3.746000051498413 -9.54800033569336,-0.3400000035762787 C-9.402000427246094,-4.427000045776367 -5.008999824523926,-7.5879998207092285 0.2630000114440918,-7.400000095367432 C5.535999774932861,-7.211999893188477 9.692999839782715,-3.746999979019165 9.54699993133545,0.3400000035762787z"></path></g></g><g transform="matrix(0.9870073795318604,0.15610840916633606,-0.16067488491535187,0.9589560031890869,70.1214599609375,-178.4849090576172)" opacity="1" style="display: block;"><g opacity="1" transform="matrix(1,0,0,1,641.0269775390625,306.7250061035156)"><path fill="rgb(255,255,255)" fill-opacity="1" d=" M9.654000282287598,51.79100036621094 C-26.488000869750977,65.11299896240234 -53.05699920654297,48.36800003051758 -64.2699966430664,19.763999938964844 C-75.48300170898438,-8.84000015258789 -67.09400177001953,-38.46900177001953 -30.95199966430664,-51.79100036621094 C5.190000057220459,-65.11299896240234 59.28200149536133,-47.17100143432617 66.61000061035156,-28.47800064086914 C75.48300170898438,-5.84499979019165 45.79600143432617,38.46900177001953 9.654000282287598,51.79100036621094z"></path><path stroke-linecap="butt" stroke-linejoin="miter" fill-opacity="0" stroke-miterlimit="10" stroke="rgb(0,0,0)" stroke-opacity="1" stroke-width="5" d=" M9.654000282287598,51.79100036621094 C-26.488000869750977,65.11299896240234 -53.05699920654297,48.36800003051758 -64.2699966430664,19.763999938964844 C-75.48300170898438,-8.84000015258789 -67.09400177001953,-38.46900177001953 -30.95199966430664,-51.79100036621094 C5.190000057220459,-65.11299896240234 59.28200149536133,-47.17100143432617 66.61000061035156,-28.47800064086914 C75.48300170898438,-5.84499979019165 45.79600143432617,38.46900177001953 9.654000282287598,51.79100036621094z"></path></g><g opacity="1" transform="matrix(1,0,0,1,629.5640258789062,306.0350036621094)"><path fill="rgb(255,187,0)" fill-opacity="1" d=" M36.18299865722656,-9.425000190734863 C40.94599914550781,8.861000061035156 28.607999801635742,27.90399932861328 8.625,33.11000061035156 C-11.359000205993652,38.314998626708984 -31.41900062561035,27.711000442504883 -36.18299865722656,9.425000190734863 C-40.94599914550781,-8.861000061035156 -28.607999801635742,-27.90399932861328 -8.62399959564209,-33.11000061035156 C11.359000205993652,-38.314998626708984 31.420000076293945,-27.711000442504883 36.18299865722656,-9.425000190734863z"></path></g></g><g transform="matrix(0.9797189831733704,-0.19468161463737488,0.20037643611431122,0.9518747329711914,-53.3812255859375,134.05105590820312)" opacity="1" style="display: block;"><g opacity="1" transform="matrix(1,0,0,1,528.2659912109375,273.90399169921875)"><path fill="rgb(255,255,255)" fill-opacity="1" d=" M24.3700008392334,59.30500030517578 C24.33300018310547,58.43199920654297 24.232999801635742,57.57899856567383 24.099000930786133,56.736000061035156 C24.273000717163086,56.654998779296875 24.44700050354004,56.57500076293945 24.618999481201172,56.492000579833984 C25.176000595092773,57.138999938964844 25.763999938964844,57.766998291015625 26.408000946044922,58.35900115966797 C35.36800003051758,66.5999984741211 49.3120002746582,66.01699829101562 57.553001403808594,57.05699920654297 C65.79299926757812,48.09700012207031 65.20999908447266,34.152000427246094 56.249000549316406,25.910999298095703 C55.47800064086914,25.201000213623047 54.65800094604492,24.58300018310547 53.819000244140625,24.003000259399414 C53.85599899291992,23.89900016784668 53.891998291015625,23.79400062561035 53.928001403808594,23.690000534057617 C54.944000244140625,23.788999557495117 55.97200012207031,23.84600067138672 57.02199935913086,23.802000045776367 C69.18399810791016,23.292999267578125 78.63200378417969,13.020000457763672 78.12300109863281,0.8569999933242798 C77.61399841308594,-11.305999755859375 67.34100341796875,-20.75200080871582 55.178001403808594,-20.243000030517578 C53.891998291015625,-20.18899917602539 52.64500045776367,-20.0049991607666 51.428001403808594,-19.742000579833984 C52.415000915527344,-20.50200080871582 53.361000061035156,-21.333999633789062 54.233001708984375,-22.2810001373291 C62.472999572753906,-31.240999221801758 61.88999938964844,-45.18600082397461 52.92900085449219,-53.426998138427734 C43.96900177001953,-61.66699981689453 30.024999618530273,-61.08300018310547 21.784000396728516,-52.12300109863281 C20.913000106811523,-51.17499923706055 20.16200065612793,-50.1619987487793 19.48699951171875,-49.1150016784668 C19.648000717163086,-50.349998474121094 19.72800064086914,-51.61000061035156 19.674999237060547,-52.895999908447266 C19.166000366210938,-65.05899810791016 8.892999649047852,-74.50599670410156 -3.2699999809265137,-73.99700164794922 C-15.432000160217285,-73.48799896240234 -24.8799991607666,-63.2140007019043 -24.371000289916992,-51.051998138427734 C-24.316999435424805,-49.76499938964844 -24.131000518798828,-48.51900100708008 -23.868000030517578,-47.301998138427734 C-24.628000259399414,-48.28799819946289 -25.461000442504883,-49.23500061035156 -26.409000396728516,-50.106998443603516 C-35.36899948120117,-58.34700012207031 -49.3129997253418,-57.76300048828125 -57.553001403808594,-48.801998138427734 C-65.79399871826172,-39.84199905395508 -65.21099853515625,-25.89900016784668 -56.25,-17.659000396728516 C-55.303001403808594,-16.78700065612793 -54.290000915527344,-16.03700065612793 -53.24300003051758,-15.362000465393066 C-53.24399948120117,-15.362000465393066 -53.24300003051758,-15.362000465393066 -53.24399948120117,-15.362000465393066 C-54.47800064086914,-15.522000312805176 -55.736000061035156,-15.60200023651123 -57.02199935913086,-15.54800033569336 C-69.18499755859375,-15.038999557495117 -78.63200378417969,-4.767000198364258 -78.12300109863281,7.395999908447266 C-77.61399841308594,19.558000564575195 -67.34200286865234,29.006000518798828 -55.17900085449219,28.496999740600586 C-54.130001068115234,28.452999114990234 -52.676998138427734,28.429000854492188 -52.63199996948242,28.530000686645508 C-52.63199996948242,28.530000686645508 -51.59000015258789,29.423999786376953 -51.59000015258789,29.423999786376953 C-51.59000015258789,29.423999786376953 -17.045000076293945,58.236000061035156 14.637999534606934,74.50499725341797 C14.637999534606934,74.50499725341797 24.3700008392334,59.30500030517578 24.3700008392334,59.30500030517578z"></path><path stroke-linecap="round" stroke-linejoin="round" fill-opacity="0" stroke="rgb(0,0,0)" stroke-opacity="1" stroke-width="5" d=" M24.3700008392334,59.30500030517578 C24.33300018310547,58.43199920654297 24.232999801635742,57.57899856567383 24.099000930786133,56.736000061035156 C24.273000717163086,56.654998779296875 24.44700050354004,56.57500076293945 24.618999481201172,56.492000579833984 C25.176000595092773,57.138999938964844 25.763999938964844,57.766998291015625 26.408000946044922,58.35900115966797 C35.36800003051758,66.5999984741211 49.3120002746582,66.01699829101562 57.553001403808594,57.05699920654297 C65.79299926757812,48.09700012207031 65.20999908447266,34.152000427246094 56.249000549316406,25.910999298095703 C55.47800064086914,25.201000213623047 54.65800094604492,24.58300018310547 53.819000244140625,24.003000259399414 C53.85599899291992,23.89900016784668 53.891998291015625,23.79400062561035 53.928001403808594,23.690000534057617 C54.944000244140625,23.788999557495117 55.97200012207031,23.84600067138672 57.02199935913086,23.802000045776367 C69.18399810791016,23.292999267578125 78.63200378417969,13.020000457763672 78.12300109863281,0.8569999933242798 C77.61399841308594,-11.305999755859375 67.34100341796875,-20.75200080871582 55.178001403808594,-20.243000030517578 C53.891998291015625,-20.18899917602539 52.64500045776367,-20.0049991607666 51.428001403808594,-19.742000579833984 C52.415000915527344,-20.50200080871582 53.361000061035156,-21.333999633789062 54.233001708984375,-22.2810001373291 C62.472999572753906,-31.240999221801758 61.88999938964844,-45.18600082397461 52.92900085449219,-53.426998138427734 C43.96900177001953,-61.66699981689453 30.024999618530273,-61.08300018310547 21.784000396728516,-52.12300109863281 C20.913000106811523,-51.17499923706055 20.16200065612793,-50.1619987487793 19.48699951171875,-49.1150016784668 C19.648000717163086,-50.349998474121094 19.72800064086914,-51.61000061035156 19.674999237060547,-52.895999908447266 C19.166000366210938,-65.05899810791016 8.892999649047852,-74.50599670410156 -3.2699999809265137,-73.99700164794922 C-15.432000160217285,-73.48799896240234 -24.8799991607666,-63.2140007019043 -24.371000289916992,-51.051998138427734 C-24.316999435424805,-49.76499938964844 -24.131000518798828,-48.51900100708008 -23.868000030517578,-47.301998138427734 C-24.628000259399414,-48.28799819946289 -25.461000442504883,-49.23500061035156 -26.409000396728516,-50.106998443603516 C-35.36899948120117,-58.34700012207031 -49.3129997253418,-57.76300048828125 -57.553001403808594,-48.801998138427734 C-65.79399871826172,-39.84199905395508 -65.21099853515625,-25.89900016784668 -56.25,-17.659000396728516 C-55.303001403808594,-16.78700065612793 -54.290000915527344,-16.03700065612793 -53.24300003051758,-15.362000465393066 C-53.24399948120117,-15.362000465393066 -53.24300003051758,-15.362000465393066 -53.24399948120117,-15.362000465393066 C-54.47800064086914,-15.522000312805176 -55.736000061035156,-15.60200023651123 -57.02199935913086,-15.54800033569336 C-69.18499755859375,-15.038999557495117 -78.63200378417969,-4.767000198364258 -78.12300109863281,7.395999908447266 C-77.61399841308594,19.558000564575195 -67.34200286865234,29.006000518798828 -55.17900085449219,28.496999740600586 C-54.130001068115234,28.452999114990234 -52.676998138427734,28.429000854492188 -52.63199996948242,28.530000686645508 C-52.63199996948242,28.530000686645508 -51.59000015258789,29.423999786376953 -51.59000015258789,29.423999786376953 C-51.59000015258789,29.423999786376953 -17.045000076293945,58.236000061035156 14.637999534606934,74.50499725341797 C14.637999534606934,74.50499725341797 24.3700008392334,59.30500030517578 24.3700008392334,59.30500030517578z"></path></g><g opacity="1" transform="matrix(1,0,0,1,528.2659912109375,278.031005859375)"><path stroke-linecap="round" stroke-linejoin="round" fill-opacity="0" stroke="rgb(253,137,255)" stroke-opacity="1" stroke-width="5" d=" M25.257999420166016,-1.0570000410079956 C25.841999053955078,12.892999649047852 15.006999969482422,24.673999786376953 1.0570000410079956,25.257999420166016 C-12.892999649047852,25.841999053955078 -24.674999237060547,15.006999969482422 -25.257999420166016,1.0570000410079956 C-25.841999053955078,-12.892999649047852 -15.006999969482422,-24.673999786376953 -1.0570000410079956,-25.257999420166016 C12.892999649047852,-25.841999053955078 24.673999786376953,-15.006999969482422 25.257999420166016,-1.0570000410079956z"></path></g><g opacity="1" transform="matrix(1,0,0,1,528.2650146484375,278.031005859375)"><path stroke-linecap="round" stroke-linejoin="round" fill-opacity="0" stroke="rgb(253,137,255)" stroke-opacity="1" stroke-width="5" d=" M42.119998931884766,-1.7630000114440918 C43.09299850463867,21.499000549316406 25.024999618530273,41.14699935913086 1.7630000114440918,42.119998931884766 C-21.499000549316406,43.09400177001953 -41.145999908447266,25.024999618530273 -42.119998931884766,1.7630000114440918 C-43.09299850463867,-21.499000549316406 -25.024999618530273,-41.14699935913086 -1.7619999647140503,-42.119998931884766 C21.5,-43.09400177001953 41.145999908447266,-25.024999618530273 42.119998931884766,-1.7630000114440918z"></path></g></g><g transform="matrix(1,0,0,0.971579372882843,539.5,551.2188110351562)" opacity="1" style="display: block;"><g opacity="1" transform="matrix(1,0,0,1,0,0)"><path fill="rgb(255,187,0)" fill-opacity="1" d=" M-50.825035095214844,-221.65345764160156 C-10.191388130187988,-171.48846435546875 131.02301025390625,-139.13209533691406 131.02301025390625,-139.13209533691406 C131.02301025390625,-139.13209533691406 159.00941467285156,-160.0109100341797 85.7685317993164,-222.71714782714844 C12.527652740478516,-285.42340087890625 -42.296993255615234,-233.69302368164062 -50.825035095214844,-221.65345764160156z"></path><path stroke-linecap="butt" stroke-linejoin="miter" fill-opacity="0" stroke-miterlimit="4" stroke="rgb(0,0,0)" stroke-opacity="1" stroke-width="5" d=" M-50.825035095214844,-221.65345764160156 C-10.191388130187988,-171.48846435546875 131.02301025390625,-139.13209533691406 131.02301025390625,-139.13209533691406 C131.02301025390625,-139.13209533691406 159.00941467285156,-160.0109100341797 85.7685317993164,-222.71714782714844 C12.527652740478516,-285.42340087890625 -42.296993255615234,-233.69302368164062 -50.825035095214844,-221.65345764160156z"></path></g><g opacity="1" transform="matrix(1,0,0,1,0,0)"><path fill="rgb(255,187,0)" fill-opacity="1" d=" M-32.514835357666016,-205.349853515625 C-32.514835357666016,-205.349853515625 -8.54163646697998,-262.5982971191406 76.48800659179688,-229.48944091796875"></path><path stroke-linecap="butt" stroke-linejoin="miter" fill-opacity="0" stroke-miterlimit="4" stroke="rgb(0,0,0)" stroke-opacity="1" stroke-width="5" d=" M-32.514835357666016,-205.349853515625 C-32.514835357666016,-205.349853515625 -8.54163646697998,-262.5982971191406 76.48800659179688,-229.48944091796875"></path></g><g opacity="1" transform="matrix(1,0,0,1,0,0)"><path stroke-linecap="butt" stroke-linejoin="miter" fill-opacity="0" stroke-miterlimit="4" stroke="rgb(0,0,0)" stroke-opacity="1" stroke-width="5" d=" M-5.4257378578186035,-187.79209899902344 C-5.4257378578186035,-187.79209899902344 27.82798957824707,-248.3013153076172 91.28666687011719,-217.95150756835938"></path></g><g opacity="1" transform="matrix(1,0,0,1,0,0)"><path stroke-linecap="butt" stroke-linejoin="miter" fill-opacity="0" stroke-miterlimit="4" stroke="rgb(0,0,0)" stroke-opacity="1" stroke-width="5" d=" M27.43231201171875,-171.99014282226562 C27.43231201171875,-171.99014282226562 49.900535583496094,-230.4927520751953 106.58696746826172,-202.4003448486328"></path></g><g opacity="1" transform="matrix(1,0,0,1,0,0)"><path stroke-linecap="butt" stroke-linejoin="miter" fill-opacity="0" stroke-miterlimit="4" stroke="rgb(0,0,0)" stroke-opacity="1" stroke-width="5" d=" M67.31346893310547,-157.19146728515625 C67.31346893310547,-157.19146728515625 60.686038970947266,-203.90528869628906 118.87739562988281,-188.85580444335938"></path></g></g><g transform="matrix(1,0,0,0.971579372882843,517.25,504.09722900390625)" opacity="1" style="display: block;"><g opacity="1" transform="matrix(1,0,0,1,21.283000946044922,44.41600036621094)"><path fill="rgb(255,187,0)" fill-opacity="1" d=" M154.5092010498047,-238.5634307861328 C125.25920104980469,-227.3134307861328 111.3046646118164,-218.6971435546875 83.08766174316406,-223.45614624023438 C57.14566421508789,-227.83114624023438 29,-218.5 12,-177.75 C31.5,-166.25 101.5,-132 156.75,-129.25 C212,-126.5 219.55099487304688,-139.031005859375 223.25,-167.25 C227.4669952392578,-199.41600036621094 183.7592010498047,-249.8134307861328 154.5092010498047,-238.5634307861328z"></path><path stroke-linecap="butt" stroke-linejoin="miter" fill-opacity="0" stroke-miterlimit="4" stroke="rgb(0,0,0)" stroke-opacity="1" stroke-width="5" d=" M154.5092010498047,-238.5634307861328 C125.25920104980469,-227.3134307861328 111.3046646118164,-218.6971435546875 83.08766174316406,-223.45614624023438 C57.14566421508789,-227.83114624023438 29,-218.5 12,-177.75 C31.5,-166.25 101.5,-132 156.75,-129.25 C212,-126.5 219.55099487304688,-139.031005859375 223.25,-167.25 C227.4669952392578,-199.41600036621094 183.7592010498047,-249.8134307861328 154.5092010498047,-238.5634307861328z"></path></g><g opacity="1" transform="matrix(1,0,0,1,0,0)"><path fill="rgb(255,187,0)" fill-opacity="1" d=" M63,-118.5 C63,-118.5 70.5143051147461,-154.25469970703125 109.73430633544922,-152.6916961669922 C172.48431396484375,-150.1916961669922 186.0092010498047,-194.5634307861328 186.0092010498047,-194.5634307861328"></path><path stroke-linecap="butt" stroke-linejoin="miter" fill-opacity="0" stroke-miterlimit="4" stroke="rgb(0,0,0)" stroke-opacity="1" stroke-width="5" d=" M63,-118.5 C63,-118.5 70.5143051147461,-154.25469970703125 109.73430633544922,-152.6916961669922 C172.48431396484375,-150.1916961669922 186.0092010498047,-194.5634307861328 186.0092010498047,-194.5634307861328"></path></g><g opacity="1" transform="matrix(1,0,0,1,0,0)"><path stroke-linecap="butt" stroke-linejoin="miter" fill-opacity="0" stroke-miterlimit="4" stroke="rgb(0,0,0)" stroke-opacity="1" stroke-width="5" d=" M103.25,-103 C103.25,-103 113,-126.69599914550781 153.25,-126.94599914550781 C193.5,-127.19599914550781 196.04058837890625,-192.10464477539062 196.04058837890625,-192.10464477539062"></path></g><g opacity="1" transform="matrix(1,0,0,1,0,0)"><path stroke-linecap="butt" stroke-linejoin="miter" fill-opacity="0" stroke-miterlimit="4" stroke="rgb(0,0,0)" stroke-opacity="1" stroke-width="5" d=" M157.75,-88 C157.75,-88 169.3466033935547,-115.6019515991211 192.23159790039062,-112.01795196533203 C212.98159790039062,-108.76795196533203 229.28408813476562,-145.64024353027344 212.09686279296875,-183.78182983398438"></path></g></g><g transform="matrix(1,0,0,0.971579372882843,540,550.7330322265625)" opacity="1" style="display: block;"><g opacity="1" transform="matrix(1,0,0,1,0,0)"><path stroke-linecap="butt" stroke-linejoin="miter" fill-opacity="0" stroke-miterlimit="4" stroke="rgb(0,0,0)" stroke-opacity="1" stroke-width="5" d=" M-62,-227.99099731445312 C-62,-227.99099731445312 -20.25,-186.74099731445312 57,-157 C149.54600524902344,-121.37000274658203 199,-129.5 211,-142.25"></path></g></g></g></svg>